{
copyright = "Copyright David Neustadt 2008-2019";
customParameters = (
{
name = description;
value = "just for fun. i will propably update this from time to time.";
},
{
name = license;
value = "The FontStruction \U201cpicto people\U201d (https://fontstruct.com/fontstructions/show/101410) by David Neustadt is licensed under a Creative Commons Attribution Share Alike license (http://creativecommons.org/licenses/by-sa/3.0/).\r\n";
},
{
name = licenseURL;
value = "http://creativecommons.org/licenses/by-sa/3.0/";
},
{
name = vendorID;
value = FSTR;
},
{
name = fontstructID;
value = 101410;
},
{
name = fontstructKey;
value = 88bf55f547bbf99545facd25c5f77921ff53c4a1;
},
);
date = "2019-06-25 06:06:27 +0200";
designer = "David Neustadt";
designerURL = "/fontstructors/79040";
familyName = "picto people";
disablesAutomaticAlignment = 1;
fontMaster = (
{
ascender = 2048;
capHeight = 1920;
customParameters = (
{
name = typoAscender;
value = 2048;
},
{
name = typoDescender;
value = 0;
},
{
name = typoLineGap;
value = 0;
},
{
name = underlinePosition;
value = 0;
},
);
descender = 0;
id = 101410;
weightValue = 400;
widthValue = 5;
xHeight = 1856;
},
);
glyphs = (
{
name = "brick-91";
transform = "{0.128,0,0,0.128,448,640}";
},
);
},
);
},
(
{
glyphname = "brick-14";
layers = (
{
layerId = 101410;
name = Regular;
paths = (
{
closed = 1;
nodes = (
"0.0 1000.0 LINE",
"0.0 448.0 OFFCURVE",
"447.0 0.0 OFFCURVE",
"1000.0 0.0 CURVE SMOOTH",
"1000.0 1000.0 LINE",
);
},
);
width = 1000;
},
);
},
{
glyphname = "brick-12";
layers = (
{
layerId = 101410;
name = Regular;
paths = (
{
closed = 1;
nodes = (
"1000.0 0.0 LINE",
"1000.0 552.0 OFFCURVE",
"553.0 1000.0 OFFCURVE",
"0.0 1000.0 CURVE SMOOTH",
"0.0 0.0 LINE",
);
},
);
width = 1000;
},
);
},
{
glyphname = "brick-11";
layers = (
{
layerId = 101410;
name = Regular;
paths = (
{
closed = 1;
nodes = (
"1000.0 1000.0 LINE",
"448.0 1000.0 OFFCURVE",
"0.0 553.0 OFFCURVE",
"0.0 0.0 CURVE SMOOTH",
"1000.0 0.0 LINE",
);
},
);
width = 1000;
},
);
},
{
glyphname = "brick-13";
layers = (
{
layerId = 101410;
name = Regular;
paths = (
{
closed = 1;
nodes = (
"0.0 0.0 LINE",
"552.0 0.0 OFFCURVE",
"1000.0 447.0 OFFCURVE",
"1000.0 1000.0 CURVE SMOOTH",
"0.0 1000.0 LINE",
);
},
);
width = 1000;
},
);
},
{
glyphname = "brick-1";
layers = (
{
layerId = 101410;
name = Regular;
paths = (
{
closed = 1;
nodes = (
"0.0 0.0 LINE",
"1000.0 0.0 LINE",
"1000.0 1000.0 LINE",
"0.0 1000.0 LINE",
);
},
);
width = 1000;
},
);
},
{
glyphname = "brick-139";
layers = (
{
layerId = 101410;
name = Regular;
paths = (
{
closed = 1;
nodes = (
"0.0 0.0 LINE",
"500.0 0.0 LINE",
"500.0 500.0 LINE",
"0.0 500.0 LINE",
);
},
);
width = 1000;
},
);
},
{
glyphname = "brick-91";
layers = (
{
layerId = 101410;
name = Regular;
paths = (
{
closed = 1;
nodes = (
"200.0 200.0 LINE",
"800.0 200.0 LINE",
"800.0 800.0 LINE",
"200.0 800.0 LINE",
);
},
);
width = 1000;
},
);
},
{
glyphname = "brick-150";
layers = (
{
layerId = 101410;
name = Regular;
paths = (
{
closed = 1;
nodes = (
"500.0 0.0 LINE",
"1000.0 0.0 LINE",
"1000.0 1000.0 LINE",
);
},
);
width = 1000;
},
);
},
{
glyphname = "brick-66";
layers = (
{
layerId = 101410;
name = Regular;
paths = (
{
closed = 1;
nodes = (
"0.0 0.0 LINE",
"1000.0 0.0 LINE",
"448.0 0.0 OFFCURVE",
"0.0 448.0 OFFCURVE",
"0.0 1000.0 CURVE SMOOTH",
);
},
);
width = 1000;
},
);
},
{
glyphname = "brick-65";
layers = (
{
layerId = 101410;
name = Regular;
paths = (
{
closed = 1;
nodes = (
"1000.0 0.0 LINE",
"1000.0 1000.0 LINE",
"1000.0 448.0 OFFCURVE",
"552.0 0.0 OFFCURVE",
"0.0 0.0 CURVE SMOOTH",
);
},
);
width = 1000;
},
);
},
{
glyphname = "brick-174";
layers = (
{
layerId = 101410;
name = Regular;
paths = (
{
closed = 1;
nodes = (
"0.0 1000.0 LINE",
"0.0 0.0 LINE",
"500.0 0.0 LINE",
);
},
);
width = 1000;
},
);
},
{
glyphname = "brick-152";
layers = (
{
layerId = 101410;
name = Regular;
paths = (
{
closed = 1;
nodes = (
"500.0 1000.0 LINE",
"0.0 1000.0 LINE",
"0.0 0.0 LINE",
);
},
);
width = 1000;
},
);
},
{
glyphname = "brick-181";
layers = (
{
layerId = 101410;
name = Regular;
paths = (
{
closed = 1;
nodes = (
"500.0 0.0 LINE",
"500.0 1000.0 LINE",
"0.0 1000.0 LINE",
);
},
);
width = 1000;
},
);
},
{
glyphname = "brick-17";
layers = (
{
layerId = 101410;
name = Regular;
paths = (
{
closed = 1;
nodes = (
"1000.0 0.0 LINE",
"1000.0 1000.0 LINE",
"0.0 1000.0 LINE",
);
},
);
width = 1000;
},
);
},
{
glyphname = "brick-16";
layers = (
{
layerId = 101410;
name = Regular;
paths = (
{
closed = 1;
nodes = (
"1000.0 1000.0 LINE",
"0.0 1000.0 LINE",
"0.0 0.0 LINE",
);
},
);
width = 1000;
},
);
},
{
glyphname = "brick-176";
layers = (
{
layerId = 101410;
name = Regular;
paths = (
{
closed = 1;
nodes = (
"1000.0 0.0 LINE",
"1000.0 1000.0 LINE",
"500.0 1000.0 LINE",
);
},
);
width = 1000;
},
);
},
{
glyphname = "brick-95";
layers = (
{
layerId = 101410;
name = Regular;
paths = (
{
closed = 1;
nodes = (
"200.0 334.0 OFFCURVE",
"334.0 200.0 OFFCURVE",
"500.0 200.0 CURVE SMOOTH",
"666.0 200.0 OFFCURVE",
"800.0 334.0 OFFCURVE",
"800.0 500.0 CURVE SMOOTH",
"800.0 666.0 OFFCURVE",
"666.0 800.0 OFFCURVE",
"500.0 800.0 CURVE SMOOTH",
"334.0 800.0 OFFCURVE",
"200.0 666.0 OFFCURVE",
"200.0 500.0 CURVE SMOOTH",
);
},
);
width = 1000;
},
);
},
{
glyphname = "brick-96";
layers = (
{
layerId = 101410;
name = Regular;
paths = (
{
closed = 1;
nodes = (
"300.0 390.0 OFFCURVE",
"390.0 300.0 OFFCURVE",
"500.0 300.0 CURVE SMOOTH",
"610.0 300.0 OFFCURVE",
"700.0 390.0 OFFCURVE",
"700.0 500.0 CURVE SMOOTH",
"700.0 610.0 OFFCURVE",
"610.0 700.0 OFFCURVE",
"500.0 700.0 CURVE SMOOTH",
"390.0 700.0 OFFCURVE",
"300.0 610.0 OFFCURVE",
"300.0 500.0 CURVE SMOOTH",
);
},
);
width = 1000;
},
);
},
{
glyphname = "brick-94";
layers = (
{
layerId = 101410;
name = Regular;
paths = (
{
closed = 1;
nodes = (
"100.0 279.0 OFFCURVE",
"279.0 100.0 OFFCURVE",
"500.0 100.0 CURVE SMOOTH",
"721.0 100.0 OFFCURVE",
"900.0 279.0 OFFCURVE",
"900.0 500.0 CURVE SMOOTH",
"900.0 721.0 OFFCURVE",
"721.0 900.0 OFFCURVE",
"500.0 900.0 CURVE SMOOTH",
"279.0 900.0 OFFCURVE",
"100.0 721.0 OFFCURVE",
"100.0 500.0 CURVE SMOOTH",
);
},
);
width = 1000;
},
);
},
{
glyphname = "brick-97";
layers = (
{
layerId = 101410;
name = Regular;
paths = (
{
closed = 1;
nodes = (
"400.0 445.0 OFFCURVE",
"445.0 400.0 OFFCURVE",
"500.0 400.0 CURVE SMOOTH",
"555.0 400.0 OFFCURVE",
"600.0 445.0 OFFCURVE",
"600.0 500.0 CURVE SMOOTH",
"600.0 555.0 OFFCURVE",
"555.0 600.0 OFFCURVE",
"500.0 600.0 CURVE SMOOTH",
"445.0 600.0 OFFCURVE",
"400.0 555.0 OFFCURVE",
"400.0 500.0 CURVE SMOOTH",
);
},
);
width = 1000;
},
);
},
{
glyphname = "brick-121";
layers = (
{
layerId = 101410;
name = Regular;
paths = (
{
closed = 1;
nodes = (
"0.0 996.0 LINE",
"0.0 0.0 LINE",
"4.0 0.0 LINE",
"500.0 500.0 LINE",
);
},
{
closed = 1;
nodes = (
"1000.0 1000.0 LINE",
"996.0 1000.0 LINE",
"500.0 500.0 LINE",
"1000.0 4.0 LINE",
);
},
);
width = 1000;
},
);
},
{
glyphname = "brick-142";
layers = (
{
layerId = 101410;
name = Regular;
paths = (
{
closed = 1;
nodes = (
"0.0 0.0 LINE",
"1000.0 0.0 LINE",
"1000.0 500.0 LINE",
"0.0 500.0 LINE",
);
},
);
width = 1000;
},
);
},
{
glyphname = "brick-105";
layers = (
{
layerId = 101410;
name = Regular;
paths = (
{
closed = 1;
nodes = (
"-2.0 1.0 LINE",
"998.0 1.0 LINE",
"998.0 1001.0 LINE",
"-2.0 1001.0 LINE",
);
},
{
closed = 1;
nodes = (
"999.0 0.0 LINE",
"1000.0 0.0 LINE",
"1000.0 1.0 LINE",
"999.0 1.0 LINE",
);
},
{
closed = 1;
nodes = (
"0.0 999.0 LINE",
"1.0 999.0 LINE",
"1.0 1000.0 LINE",
"0.0 1000.0 LINE",
);
},
{
closed = 1;
nodes = (
"400.0 500.0 CURVE SMOOTH",
"400.0 555.0 OFFCURVE",
"445.0 600.0 OFFCURVE",
"500.0 600.0 CURVE SMOOTH",
"555.0 600.0 OFFCURVE",
"600.0 555.0 OFFCURVE",
"600.0 500.0 CURVE SMOOTH",
"600.0 445.0 OFFCURVE",
"555.0 400.0 OFFCURVE",
"500.0 400.0 CURVE SMOOTH",
"445.0 400.0 OFFCURVE",
"400.0 445.0 OFFCURVE",
);
},
);
width = 1000;
},
);
},
{
glyphname = "brick-111";
layers = (
{
layerId = 101410;
name = Regular;
paths = (
{
closed = 1;
nodes = (
"691.0 388.0 LINE",
"1000.0 613.0 LINE",
"618.0 613.0 LINE",
"500.0 976.0 LINE",
"382.0 613.0 LINE",
"0.0 613.0 LINE",
"309.0 388.0 LINE",
"191.0 25.0 LINE",
"500.0 249.0 LINE",
"809.0 25.0 LINE",
);
},
);
width = 1000;
},
);
},
{
glyphname = "brick-128";
layers = (
{
layerId = 101410;
name = Regular;
paths = (
{
closed = 1;
nodes = (
"500.0 224.0 OFFCURVE",
"724.0 0.0 OFFCURVE",
"1000.0 0.0 CURVE SMOOTH",
"1000.0 1000.0 LINE",
"724.0 1000.0 OFFCURVE",
"500.0 776.0 OFFCURVE",
"500.0 500.0 CURVE SMOOTH",
);
},
);
width = 1000;
},
);
},
{
glyphname = "brick-126";
layers = (
{
layerId = 101410;
name = Regular;
paths = (
{
closed = 1;
nodes = (
"500.0 776.0 OFFCURVE",
"276.0 1000.0 OFFCURVE",
"0.0 1000.0 CURVE SMOOTH",
"0.0 0.0 LINE",
"276.0 0.0 OFFCURVE",
"500.0 224.0 OFFCURVE",
"500.0 500.0 CURVE SMOOTH",
);
},
);
width = 1000;
},
);
},
{
glyphname = "brick-19";
layers = (
{
layerId = 101410;
name = Regular;
paths = (
{
closed = 1;
nodes = (
"0.0 224.0 OFFCURVE",
"224.0 0.0 OFFCURVE",
"500.0 0.0 CURVE SMOOTH",
"776.0 0.0 OFFCURVE",
"1000.0 224.0 OFFCURVE",
"1000.0 500.0 CURVE SMOOTH",
"1000.0 776.0 OFFCURVE",
"776.0 1000.0 OFFCURVE",
"500.0 1000.0 CURVE SMOOTH",
"224.0 1000.0 OFFCURVE",
"0.0 776.0 OFFCURVE",
"0.0 500.0 CURVE SMOOTH",
);
},
);
width = 1000;
},
);
},
{
glyphname = "brick-137";
layers = (
{
layerId = 101410;
name = Regular;
paths = (
{
closed = 1;
nodes = (
"500.0 500.0 LINE",
"1000.0 500.0 LINE",
"1000.0 1000.0 LINE",
"500.0 1000.0 LINE",
);
},
);
width = 1000;
},
);
},
{
glyphname = "brick-68";
layers = (
{
layerId = 101410;
name = Regular;
paths = (
{
closed = 1;
nodes = (
"0.0 1000.0 LINE",
"0.0 500.0 LINE",
"0.0 776.0 OFFCURVE",
"224.0 1000.0 OFFCURVE",
"500.0 1000.0 CURVE SMOOTH",
);
},
);
width = 1000;
},
);
},
{
glyphname = "brick-69";
layers = (
{
layerId = 101410;
name = Regular;
paths = (
{
closed = 1;
nodes = (
"1000.0 1000.0 LINE",
"500.0 1000.0 LINE",
"776.0 1000.0 OFFCURVE",
"1000.0 776.0 OFFCURVE",
"1000.0 500.0 CURVE SMOOTH",
);
},
);
width = 1000;
},
);
},
{
glyphname = "brick-119";
layers = (
{
layerId = 101410;
name = Regular;
paths = (
{
closed = 1;
nodes = (
"500.0 500.0 LINE",
"0.0 0.0 LINE",
"1000.0 0.0 LINE",
);
},
);
width = 1000;
},
);
},
{
glyphname = "brick-127";
layers = (
{
layerId = 101410;
name = Regular;
paths = (
{
closed = 1;
nodes = (
"776.0 500.0 OFFCURVE",
"1000.0 724.0 OFFCURVE",
"1000.0 1000.0 CURVE SMOOTH",
"0.0 1000.0 LINE",
"0.0 724.0 OFFCURVE",
"224.0 500.0 OFFCURVE",
"500.0 500.0 CURVE SMOOTH",
);
},
);
width = 1000;
},
);
},
{
glyphname = "brick-117";
layers = (
{
layerId = 101410;
name = Regular;
paths = (
{
closed = 1;
nodes = (
"500.0 500.0 LINE",
"1000.0 1000.0 LINE",
"0.0 1000.0 LINE",
);
},
);
width = 1000;
},
);
},
{
glyphname = "brick-154";
layers = (
{
layerId = 101410;
name = Regular;
paths = (
{
closed = 1;
nodes = (
"0.0 0.0 LINE",
"500.0 0.0 LINE",
"500.0 1000.0 LINE",
);
},
);
width = 1000;
},
);
},
{
glyphname = "brick-72";
layers = (
{
layerId = 101410;
name = Regular;
paths = (
{
closed = 1;
nodes = (
"1000.0 224.0 OFFCURVE",
"776.0 0.0 OFFCURVE",
"500.0 0.0 CURVE SMOOTH",
"1000.0 0.0 LINE",
"1000.0 500.0 LINE",
);
},
{
closed = 1;
nodes = (
"224.0 0.0 OFFCURVE",
"0.0 224.0 OFFCURVE",
"0.0 500.0 CURVE SMOOTH",
"0.0 0.0 LINE",
"500.0 0.0 LINE",
);
},
);
width = 1000;
},
);
},
{
glyphname = "brick-74";
layers = (
{
layerId = 101410;
name = Regular;
paths = (
{
closed = 1;
nodes = (
"0.0 776.0 OFFCURVE",
"224.0 1000.0 OFFCURVE",
"500.0 1000.0 CURVE SMOOTH",
"0.0 1000.0 LINE",
"0.0 500.0 LINE",
);
},
{
closed = 1;
nodes = (
"776.0 1000.0 OFFCURVE",
"1000.0 776.0 OFFCURVE",
"1000.0 500.0 CURVE SMOOTH",
"1000.0 1000.0 LINE",
"500.0 1000.0 LINE",
);
},
);
width = 1000;
},
);
},
{
glyphname = "brick-129";
layers = (
{
layerId = 101410;
name = Regular;
paths = (
{
closed = 1;
nodes = (
"224.0 500.0 OFFCURVE",
"0.0 276.0 OFFCURVE",
"0.0 0.0 CURVE SMOOTH",
"1000.0 0.0 LINE",
"1000.0 276.0 OFFCURVE",
"776.0 500.0 OFFCURVE",
"500.0 500.0 CURVE SMOOTH",
);
},
);
width = 1000;
},
);
},
{
glyphname = "brick-141";
layers = (
{
layerId = 101410;
name = Regular;
paths = (
{
closed = 1;
nodes = (
"500.0 0.0 LINE",
"1000.0 0.0 LINE",
"1000.0 1000.0 LINE",
"500.0 1000.0 LINE",
);
},
);
width = 1000;
},
);
},
{
glyphname = "brick-138";
layers = (
{
layerId = 101410;
name = Regular;
paths = (
{
closed = 1;
nodes = (
"500.0 0.0 LINE",
"1000.0 0.0 LINE",
"1000.0 500.0 LINE",
"500.0 500.0 LINE",
);
},
);
width = 1000;
},
);
},
{
glyphname = "brick-70";
layers = (
{
layerId = 101410;
name = Regular;
paths = (
{
closed = 1;
nodes = (
"1000.0 0.0 LINE",
"1000.0 500.0 LINE",
"1000.0 224.0 OFFCURVE",
"776.0 0.0 OFFCURVE",
"500.0 0.0 CURVE SMOOTH",
);
},
);
width = 1000;
},
);
},
{
glyphname = "brick-71";
layers = (
{
layerId = 101410;
name = Regular;
paths = (
{
closed = 1;
nodes = (
"0.0 0.0 LINE",
"500.0 0.0 LINE",
"224.0 0.0 OFFCURVE",
"0.0 224.0 OFFCURVE",
"0.0 500.0 CURVE SMOOTH",
);
},
);
width = 1000;
},
);
},
{
glyphname = "brick-118";
layers = (
{
layerId = 101410;
name = Regular;
paths = (
{
closed = 1;
nodes = (
"500.0 500.0 LINE",
"1000.0 0.0 LINE",
"1000.0 1000.0 LINE",
);
},
);
width = 1000;
},
);
},
{
glyphname = "brick-143";
layers = (
{
layerId = 101410;
name = Regular;
paths = (
{
closed = 1;
nodes = (
"0.0 0.0 LINE",
"500.0 0.0 LINE",
"500.0 1000.0 LINE",
"0.0 1000.0 LINE",
);
},
);
width = 1000;
},
);
},
{
glyphname = "brick-136";
layers = (
{
layerId = 101410;
name = Regular;
paths = (
{
closed = 1;
nodes = (
"0.0 500.0 LINE",
"500.0 500.0 LINE",
"500.0 1000.0 LINE",
"0.0 1000.0 LINE",
);
},
);
width = 1000;
},
);
},
{
glyphname = "brick-165";
layers = (
{
layerId = 101410;
name = Regular;
paths = (
{
closed = 1;
nodes = (
"500.0 1000.0 LINE",
"0.0 0.0 LINE",
"1000.0 0.0 LINE",
);
},
);
width = 1000;
},
);
},
{
glyphname = "brick-169";
layers = (
{
layerId = 101410;
name = Regular;
paths = (
{
closed = 1;
nodes = (
"500.0 1000.0 LINE",
"0.0 1000.0 LINE",
"0.0 0.0 LINE",
);
},
{
closed = 1;
nodes = (
"1000.0 0.0 LINE",
"1000.0 1000.0 LINE",
"500.0 1000.0 LINE",
);
},
);
width = 1000;
},
);
},
{
glyphname = "brick-148";
layers = (
{
layerId = 101410;
name = Regular;
paths = (
{
closed = 1;
nodes = (
"1000.0 1000.0 LINE",
"500.0 1000.0 LINE",
"500.0 500.0 LINE",
"0.0 500.0 LINE",
"0.0 0.0 LINE",
"1000.0 0.0 LINE",
);
},
);
width = 1000;
},
);
},
{
glyphname = "brick-102";
layers = (
{
layerId = 101410;
name = Regular;
paths = (
{
closed = 1;
nodes = (
"0.0 0.0 LINE",
"1000.0 0.0 LINE",
"1000.0 1000.0 LINE",
"0.0 1000.0 LINE",
);
},
{
closed = 1;
nodes = (
"100.0 500.0 CURVE SMOOTH",
"100.0 721.0 OFFCURVE",
"279.0 900.0 OFFCURVE",
"500.0 900.0 CURVE SMOOTH",
"721.0 900.0 OFFCURVE",
"900.0 721.0 OFFCURVE",
"900.0 500.0 CURVE SMOOTH",
"900.0 279.0 OFFCURVE",
"721.0 100.0 OFFCURVE",
"500.0 100.0 CURVE SMOOTH",
"279.0 100.0 OFFCURVE",
"100.0 279.0 OFFCURVE",
);
},
);
width = 1000;
},
);
},
),
);
disablesNiceNames = 1;
instances = (
{
name = Regular;
},
);
manufacturer = "https://fontstruct.com";
manufacturerURL = "https://www.fontstruct.com";
unitsPerEm = 2048;
versionMajor = 1;
versionMinor = 0;
kerning = {
101410 = ();
};
}